# xmcd
# 
# Track frame offsets:
#     150
#     11975
#     26595
#     53523
#     87565
#     100785
#     111965
#     147895
#     159700
#     175138
#     188945
#     200290
# 
# Disc length: 2912
# 
# Revision: 7
# Processed by: cddbd v1.5.2PL0 Copyright (c) Steve Scherf et al.
# Submitted via: fre:ac v1.0.17
# 
DISCID=9f0b5e0c
DTITLE=Benny Goodman - The Jazz Collector Edition
DYEAR=0
DGENRE=Jazz
TTITLE0=Let's Dance
TTITLE1=Memories Of You
TTITLE2=Stompin At The Savoy
TTITLE3=One O'Clock Jump
TTITLE4=King Porter Stomp
TTITLE5=Henderson Stomp
TTITLE6=Sing, Sing, Sing (With A Swing)
TTITLE7=Limehouse Blues
TTITLE8=After You've Gone
TTITLE9=Down South Camp Meeting
TTITLE10=Bugle Call Rag
TTITLE11=MahzeAvalon
EXTD=
EXTT0=Benny Goodman and His Orchestra
EXTT1=Benny Goodman and His Orchestra
EXTT2=Benny Goodman and His Orchestra
EXTT3=Benny Goodman and His Orchestra
EXTT4=Benny Goodman and His Orchestra
EXTT5=Benny Goodman and His Orchestra
EXTT6=Benny Goodman and His Orchestra
EXTT7=Benny Goodman and His Orchestra
EXTT8=Benny Goodman and His Orchestra
EXTT9=Benny Goodman and His Orchestra
EXTT10=Benny Goodman and His Orchestra
EXTT11=Benny Goodman and His Orchestra
PLAYORDER=
